<svg xmlns="http://www.w3.org/2000/svg" xmlns:xlink="http://www.w3.org/1999/xlink" width="37" height="17" viewBox="0 0 37 17">
    <defs>
        <path id="a" d="M.012 16.499h36.522V.176H.012z"/>
    </defs>
    <g fill="none" fill-rule="evenodd">
        <mask id="b" fill="#fff">
            <use xlink:href="#a"/>
        </mask>
        <path fill="#0023A0" d="M25.133 10.934c0 .07-.044.114-.114.114h-1.183c-.07 0-.113-.044-.113-.114V4.92c0-.07.043-.114.113-.114h1.183c.07 0 .114.044.114.114v6.015zM31.83 8.99l1.005-4.088c.017-.061.06-.096.13-.096h1.201c.078 0 .122.052.096.123 0 0-1.331 5.406-1.47 6.015-.016.069-.053.105-.123.105h-1.592c-.07 0-.113-.035-.122-.105a23.62 23.62 0 0 0-.314-1.462l-.269-1.145c-.052-.229-.122-.599-.174-.907-.018-.124-.122-.124-.14 0-.052.308-.121.67-.174.907l-.27 1.145c-.112.485-.208.95-.313 1.462-.009.07-.052.105-.121.105h-1.593c-.07 0-.105-.036-.122-.105-.154-.609-1.47-6.015-1.47-6.015-.027-.07.017-.123.095-.123h1.201c.07 0 .113.035.13.096l.995 4.088 1.094-4.088c.018-.061.061-.096.122-.096h.992c.061 0 .105.035.122.096L31.83 8.99zm4.704 1.945c0 .07-.044.114-.113.114h-1.184c-.07 0-.113-.044-.113-.114V4.92c0-.07.044-.114.113-.114h1.184c.07 0 .113.044.113.114v6.015zm-14.195 1.638c-.053.044-.113.035-.157-.018l-.418-.563c-.383-.52-.87-.845-1.775-.845-1.706 0-2.776-1.242-2.776-3.215 0-1.982 1.07-3.223 2.776-3.223 1.706 0 2.767 1.241 2.767 3.223 0 1.004-.348 2.025-.931 2.378-.104.061-.104.088 0 .123.505.185.74.405 1.01.757l.391.537c.044.054.035.115-.017.16l-.87.686zm-2.35-2.695c.844 0 1.349-.74 1.349-1.946 0-1.233-.505-1.946-1.35-1.946-.826 0-1.357.713-1.357 1.946 0 1.206.531 1.946 1.358 1.946z" mask="url(#b)"/>
        <path fill="#FF8C00" d="M12.436 10.436c-.14-.041-.246-.01-.298.086-.079.145-.02.433.138.684.161.253.297.382.406.382.038 0 .071-.016.097-.046.06-.07.08-.217.055-.403-.026-.19-.14-.58-.398-.703m-1.588 1.186a.42.42 0 0 0-.337.143c-.19.236-.105.651.185.907a.752.752 0 0 0 .487.179.515.515 0 0 0 .428-.194c.169-.23.072-.553-.247-.826a.807.807 0 0 0-.516-.209m4.72 4.614c-1.436-1.801-2.667-2.296-3.804-2.603-.16-.043-.317-.083-.474-.122l-.061-.015c-.956-.237-1.856-.468-2.77-1.407l-.037-.038c-.25-.262-.5-.578-.754-.96a9.04 9.04 0 0 1-.205-.324c-.194-.32-.178.473-.104 1.428 0 .016.002.031.003.047-.06.002-.121.004-.183.004-1.285 0-2.36-.455-3.286-1.392-.926-.937-1.375-2.05-1.375-3.405 0-1.357.437-2.475 1.337-3.419.896-.938 1.983-1.395 3.324-1.395 1.31 0 2.398.456 3.33 1.393.931.937 1.384 2.065 1.384 3.448 0 .178-.008.35-.023.52l-.046-.003c-.797-.05-1.49-.04-1.538.008-.115.116.205.1.348.139.234.064.451.141.653.231.158.07.306.15.445.236l.042.026c.847.543 1.327 1.385 1.482 2.494.006.044.033.105.08.025.444-.753.682-1.34.81-1.755l.006.003a7.73 7.73 0 0 0 .115-.488c.095-.48.143-.974.143-1.48 0-1.31-.323-2.542-.963-3.66a6.985 6.985 0 0 0-2.649-2.642A7.34 7.34 0 0 0 7.127.176a6.984 6.984 0 0 0-3.563.965A7.029 7.029 0 0 0 .953 3.802 7.377 7.377 0 0 0 0 7.467c0 1.31.32 2.539.954 3.65a6.94 6.94 0 0 0 2.641 2.635 7.252 7.252 0 0 0 3.627.953c.275 0 .546-.015.814-.044a66.136 66.136 0 0 0 .66-.056c.759-.067 1.484-.138 2.214-.107 1.374.058 2.764.477 4.417 1.958.165.149.387-.037.241-.22" mask="url(#b)"/>
    </g>
</svg>
