<svg xmlns="http://www.w3.org/2000/svg" xmlns:xlink="http://www.w3.org/1999/xlink" width="25" height="16" viewBox="0 0 25 16"><defs><path id="a" d="M15.2 0.247L0.09 0.247 0.09 15.454 15.2 15.454z"/><path id="c" d="M15.11 0.247L0.001 0.247 0.001 15.454 15.11 15.454z"/></defs><g fill="none" fill-rule="evenodd" opacity=".25"><g transform="translate(9.153 .01)"><mask id="b" fill="#fff"><use xlink:href="#a"/></mask><path fill="#000" fill-rule="nonzero" d="M2.985 13.836A7.608 7.608 0 0 0 5.88 7.85a7.606 7.606 0 0 0-2.894-5.985A7.492 7.492 0 0 1 7.645.247c4.172 0 7.555 3.404 7.555 7.604s-3.383 7.603-7.555 7.603a7.492 7.492 0 0 1-4.66-1.618zM.27 9.505zM.092 7.69z" mask="url(#b)"/></g><g transform="translate(-.077 .01)"><mask id="d" fill="#fff"><use xlink:href="#c"/></mask><path fill="#000" fill-rule="nonzero" d="M15.11 7.85c0 4.2-3.382 7.604-7.555 7.604-4.172 0-7.554-3.404-7.554-7.603C0 3.65 3.383.247 7.555.247c4.173 0 7.555 3.404 7.555 7.604z" mask="url(#d)" opacity=".4"/></g><path fill="#000" fill-rule="nonzero" d="M12.138 1.876A7.606 7.606 0 0 0 9.244 7.86a7.608 7.608 0 0 0 2.894 5.987 7.608 7.608 0 0 0 2.895-5.987 7.606 7.606 0 0 0-2.895-5.985" opacity=".4"/></g></svg>