<svg xmlns="http://www.w3.org/2000/svg" width="31" height="12" viewBox="0 0 31 12"><g opacity=".25" transform="translate(.077 .318)"><path d="M6.958 6.526h-.244L5.29 1.45C5.05.59 4.283-.001 3.412 0H0v11.045h3.417V4.52h.257l1.952 6.526h2.443L10.01 4.52h.244v6.526h3.417V0h-3.413c-.87-.001-1.636.59-1.878 1.45L6.958 6.526zM27.095 0h-7.563c.47 2.613 2.683 4.511 5.267 4.52h5.878a3.857 3.857 0 0 0-.754-3.129A3.636 3.636 0 0 0 27.095 0z"/><path d="M15.137 0H18.554000000000002V11.045H15.137z"/><path d="M30.77 11.05l-2.426-3.74a3.728 3.728 0 0 0 2.214-2.286H20.023v6.021h3.398v-3.49h1.635l1.791 3.519 3.922-.024z"/></g></svg>