<svg xmlns="http://www.w3.org/2000/svg" width="115" height="23" viewBox="0 0 115 23"><path fill="#FF8C00" fill-rule="evenodd" d="M108.108 15.238c-1.954 0-3.556-1.515-3.556-3.762 0-2.224 1.602-3.762 3.556-3.762s3.58 1.538 3.58 3.762c0 2.247-1.626 3.762-3.58 3.762zm-.023-10.08c-3.627 0-6.57 2.627-6.57 6.318 0 3.715 2.943 6.318 6.593 6.318s6.593-2.603 6.593-6.318c0-3.691-2.944-6.318-6.616-6.318zM93.672 15.262c-1.954 0-2.99-1.846-2.99-3.715 0-2.674 1.46-3.81 3.038-3.81 1.742 0 2.966 1.491 2.966 3.786 0 2.39-1.365 3.739-3.014 3.739zm.707-10.104c-1.624 0-3.085.734-3.861 2.035h-.048s.048-.402.048-.852v-.9h-2.732v16.801h2.99v-5.111c0-.615-.07-1.041-.07-1.041h.047a4.34 4.34 0 0 0 3.461 1.704c3.155 0 5.486-2.485 5.486-6.318 0-3.738-2.072-6.318-5.321-6.318zM79.238 15.309c-1.625 0-2.967-1.207-2.967-3.265 0-1.894 1.296-3.242 3.014-3.242 1.601 0 2.943 1.23 2.943 3.265s-1.342 3.242-2.99 3.242zm.87-8.826c-1.388 0-2.895.426-3.955 1.751h-.047c.118-2.082 1.46-3.194 3.509-4.046l4.568-1.751L83.288 0l-4.144 1.632c-4.38 1.704-5.91 4.284-5.91 8.827 0 4.282 1.954 7.335 6.122 7.335 3.555 0 5.886-2.437 5.886-5.774 0-3.336-2.048-5.537-5.133-5.537zm-15.423 8.755c-1.954 0-3.555-1.515-3.555-3.762 0-2.224 1.6-3.762 3.555-3.762s3.579 1.538 3.579 3.762c0 2.247-1.624 3.762-3.58 3.762zm-.023-10.08c-3.627 0-6.57 2.627-6.57 6.318 0 3.715 2.943 6.318 6.593 6.318s6.592-2.603 6.592-6.318c0-3.691-2.942-6.318-6.615-6.318zm-12.575 9.938h-4.45c1.247-2.082 1.46-4.85 1.46-6.672v-.568h2.99v7.24zm2.99-9.654h-8.83V7.95c0 2.081-.283 5.205-1.601 7.145h-1.483v5.253h2.778V17.51h8.147v2.84h2.708v-5.254h-1.72V5.442zm-16.625 6.886c0 1.467-1.083 3.17-2.755 3.17-1.2 0-1.813-.78-1.813-1.585 0-1.704 2.544-1.916 4.05-1.916h.518v.33zm-2.024-7.17c-1.79 0-3.721.686-4.71 1.49l1.108 2.154c.965-.663 2.165-1.16 3.343-1.16 1.247 0 2.26.545 2.26 2.13v.166h-.518c-2.661 0-6.993.615-6.993 4.236 0 2.2 1.789 3.62 3.955 3.62a4.39 4.39 0 0 0 3.792-2.177h.046s-.07.379-.07.875v1.018h2.778V9.962c0-3.053-1.86-4.804-4.991-4.804zm-10.785.284h2.99V17.51h-2.99v-4.874H20.51v4.874h-2.99V5.442h2.99v4.661h5.133V5.442zm-16.86 5.49H5.58l.565-3.312h3.226l-.589 3.312zM12.948.71h-2.4l-.825 4.732H6.522L7.346.71H4.944L4.12 5.442H1.341L.99 7.62h2.778l-.588 3.312H.376L0 13.085h2.802l-.754 4.425H4.45l.753-4.425h3.226l-.777 4.425h2.402l.776-4.425h2.803l.353-2.153h-2.802l.588-3.312h2.826l.377-2.178h-2.85L12.95.71z"/></svg>