<?xml version="1.0" encoding="UTF-8" standalone="no"?>
<svg width="100px" height="100px" viewBox="0 0 100 100" version="1.1" xmlns="http://www.w3.org/2000/svg" xmlns:xlink="http://www.w3.org/1999/xlink">
    <!-- Generator: Sketch 48.2 (47327) - http://www.bohemiancoding.com/sketch -->
    <title>Shape</title>
    <desc>Created with Sketch.</desc>
    <defs></defs>
    <g id="Page-1" stroke="none" stroke-width="1" fill="none" fill-rule="evenodd">
        <g id="circle" fill="#FF8C00" fill-rule="nonzero">
            <path d="M98.341,62.816 C98.37,62.71 98.397,62.603 98.425,62.496 C99.4737332,58.4135366 100.002916,54.2150137 100,50 C100,22.386 77.614,0 50,0 C22.386,0 0,22.386 0,50 C0,77.614 22.386,100 50,100 C54.3485436,100.00283 58.6789461,99.439427 62.882,98.324 C64.581674,97.8433721 65.5813167,96.0879253 65.1273915,94.380926 C64.6734662,92.6739267 62.9339051,91.6468889 61.22,92.074 C57.5591872,93.0453035 53.7874759,93.5357605 50,93.533 C25.958,93.532 6.468,74.042 6.468,50 C6.468,25.958 25.958,6.468 50,6.468 C74.042,6.468 93.532,25.958 93.532,50 C93.532,53.712 93.069,57.36 92.162,60.884 C91.632,62.889 92.662,64.659 94.388,65.116 C96.1147102,65.5724037 97.8844888,64.5426818 98.341,62.816 Z" id="Shape"></path>
        </g>
    </g>
</svg>