<?xml version="1.0" encoding="UTF-8"?>
<svg width="44px" height="18px" viewBox="0 0 44 18" version="1.1" xmlns="http://www.w3.org/2000/svg" xmlns:xlink="http://www.w3.org/1999/xlink">
    <!-- Generator: Sketch 46.2 (44496) - http://www.bohemiancoding.com/sketch -->
    <title>Artboard</title>
    <desc>Created with Sketch.</desc>
    <defs>
        <polygon id="path-1" points="2 8.8525 2 0.8615 0.1744 0.8615 0.1744 8.8525 2 8.8525"></polygon>
        <polygon id="path-3" points="0.0003 0.499 14.995253 0.499 14.995253 16 0.0003 16"></polygon>
    </defs>
    <g id="Page-1" stroke="none" stroke-width="1" fill="none" fill-rule="evenodd">
        <g id="Artboard">
            <g id="Page-1" transform="translate(1.000000, 1.000000)">
                <path d="M23.6156,14.3042 C23.5486,14.3612 23.4696,14.3492 23.4126,14.2822 L22.8716,13.5602 C22.3766,12.8952 21.7446,12.4782 20.5726,12.4782 C18.3626,12.4782 16.9766,10.8892 16.9766,8.3642 C16.9766,5.8282 18.3626,4.2392 20.5726,4.2392 C22.7816,4.2392 24.1566,5.8282 24.1566,8.3642 C24.1566,9.6492 23.7066,10.9562 22.9506,11.4082 C22.8156,11.4872 22.8156,11.5202 22.9506,11.5662 C23.6046,11.8022 23.9086,12.0832 24.2586,12.5342 L24.7646,13.2222 C24.8216,13.2892 24.8106,13.3682 24.7426,13.4252 L23.6156,14.3042 Z M20.5726,10.8552 C21.6656,10.8552 22.3196,9.9082 22.3196,8.3642 C22.3196,6.7862 21.6656,5.8732 20.5726,5.8732 C19.5016,5.8732 18.8136,6.7862 18.8136,8.3642 C18.8136,9.9082 19.5016,10.8552 20.5726,10.8552 L20.5726,10.8552 Z" id="Fill-1" fill="#0023A0"></path>
                <path d="M27.2337,12.2075 C27.2337,12.2985 27.1777,12.3535 27.0877,12.3535 L25.5547,12.3535 C25.4637,12.3535 25.4087,12.2985 25.4087,12.2075 L25.4087,4.5095 C25.4087,4.4195 25.4637,4.3625 25.5547,4.3625 L27.0877,4.3625 C27.1777,4.3625 27.2337,4.4195 27.2337,4.5095 L27.2337,12.2075 Z" id="Fill-3" fill="#0023A0"></path>
                <path d="M37.6712,9.9312 C37.4692,10.7082 37.2992,11.4522 37.1532,12.2192 C37.1422,12.3092 37.0852,12.3542 36.9952,12.3542 L34.9332,12.3542 C34.8422,12.3542 34.7862,12.3092 34.7752,12.2192 C34.6502,11.5662 34.5262,10.9682 34.3682,10.3482 L34.0202,8.8832 C33.9522,8.5902 33.8612,8.1162 33.7942,7.7222 C33.7722,7.5642 33.6362,7.5642 33.6132,7.7222 C33.5462,8.1162 33.4562,8.5782 33.3882,8.8832 L33.0392,10.3482 C32.8932,10.9682 32.7692,11.5662 32.6332,12.2192 C32.6222,12.3092 32.5662,12.3542 32.4762,12.3542 L30.4122,12.3542 C30.3222,12.3542 30.2662,12.3092 30.2552,12.2192 C30.1092,11.4522 29.9402,10.7082 29.7362,9.9312 L28.3502,4.5202 C28.3172,4.4312 28.3722,4.3632 28.4742,4.3632 L30.0292,4.3632 C30.1192,4.3632 30.1762,4.4082 30.1982,4.4872 L30.9652,7.5302 C31.1562,8.2972 31.3152,9.2772 31.3822,10.0102 C31.3932,10.1572 31.5632,10.1672 31.5852,10.0102 C31.6862,9.2882 31.8662,8.2972 32.0812,7.5302 L32.9032,4.4872 C32.9262,4.4082 32.9832,4.3632 33.0622,4.3632 L34.3462,4.3632 C34.4252,4.3632 34.4822,4.4082 34.5042,4.4872 L35.3382,7.5302 C35.5522,8.2972 35.7332,9.2882 35.8342,10.0102 C35.8462,10.1672 36.0152,10.1572 36.0252,10.0102 C36.0822,9.2772 36.2512,8.2972 36.4422,7.5302 L37.2092,4.4872 C37.2322,4.4082 37.2882,4.3632 37.3782,4.3632 L38.9342,4.3632 C39.0352,4.3632 39.0922,4.4312 39.0582,4.5202 L37.6712,9.9312 Z" id="Fill-5" fill="#0023A0"></path>
                <g id="Group-9" transform="translate(40.000000, 3.501000)">
                    <mask id="mask-2" fill="white">
                        <use xlink:href="#path-1"></use>
                    </mask>
                    <g id="Clip-8"></g>
                    <path d="M2.0004,8.7065 C2.0004,8.7975 1.9434,8.8525 1.8544,8.8525 L0.3204,8.8525 C0.2304,8.8525 0.1744,8.7975 0.1744,8.7065 L0.1744,1.0085 C0.1744,0.9185 0.2304,0.8615 0.3204,0.8615 L1.8544,0.8615 C1.9434,0.8615 2.0004,0.9185 2.0004,1.0085 L2.0004,8.7065 Z" id="Fill-7" fill="#0023A0" mask="url(#mask-2)"></path>
                </g>
                <g id="Group-12" transform="translate(0.000000, 0.501000)">
                    <mask id="mask-4" fill="white">
                        <use xlink:href="#path-3"></use>
                    </mask>
                    <g id="Clip-11"></g>
                    <path d="M10.4173,11.3608 C10.2793,11.3608 10.1643,11.4098 10.0933,11.4968 C9.9113,11.7198 9.9933,12.1148 10.2713,12.3578 C10.3933,12.4648 10.5673,12.5268 10.7393,12.5268 C10.9143,12.5268 11.0603,12.4618 11.1493,12.3428 C11.3123,12.1258 11.2183,11.8188 10.9123,11.5598 C10.7613,11.4308 10.5853,11.3608 10.4173,11.3608 M11.9413,10.2358 C11.8073,10.1958 11.7053,10.2258 11.6553,10.3168 C11.5803,10.4548 11.6363,10.7278 11.7883,10.9648 C11.9423,11.2068 12.0743,11.3288 12.1783,11.3288 C12.2143,11.3288 12.2463,11.3138 12.2713,11.2858 C12.3293,11.2188 12.3493,11.0798 12.3243,10.9028 C12.3003,10.7218 12.1883,10.3508 11.9413,10.2358 M14.9493,15.7398 C15.0903,15.9138 14.8763,16.0898 14.7183,15.9488 C13.1313,14.5438 11.7963,14.1448 10.4763,14.0898 C9.7753,14.0608 9.0793,14.1288 8.3513,14.1918 C8.2063,14.2048 8.0593,14.2178 7.9113,14.2298 C7.8463,14.2348 7.7813,14.2398 7.7163,14.2448 C7.4593,14.2718 7.1993,14.2868 6.9363,14.2868 C5.6933,14.2868 4.5213,13.9828 3.4523,13.3818 C2.3783,12.7798 1.5253,11.9388 0.9163,10.8818 C0.3083,9.8268 0.0003,8.6618 0.0003,7.4178 C0.0003,6.1758 0.3083,5.0058 0.9153,3.9398 C1.5233,2.8728 2.3663,2.0238 3.4213,1.4148 C4.4773,0.8068 5.6283,0.4988 6.8433,0.4988 C8.1123,0.4988 9.2993,0.8038 10.3693,1.4038 C11.4423,2.0068 12.2983,2.8498 12.9133,3.9118 C13.5263,4.9728 13.8383,6.1418 13.8383,7.3848 C13.8383,7.8648 13.7913,8.3338 13.7003,8.7898 C13.6883,8.8558 13.6713,8.9358 13.6473,9.0288 C13.6293,9.1038 13.6103,9.1788 13.5903,9.2528 L13.5843,9.2498 C13.4613,9.6428 13.2323,10.1998 12.8073,10.9158 C12.7613,10.9908 12.7353,10.9328 12.7303,10.8908 C12.5803,9.8398 12.1193,9.0398 11.3073,8.5248 C11.2933,8.5158 11.2793,8.5078 11.2663,8.4998 C11.1333,8.4178 10.9903,8.3428 10.8393,8.2758 C10.6453,8.1908 10.4363,8.1168 10.2113,8.0558 C10.0733,8.0198 9.7673,8.0348 9.8783,7.9248 C9.9243,7.8798 10.5893,7.8688 11.3543,7.9178 C11.3693,7.9188 11.3843,7.9188 11.3983,7.9198 C11.4133,7.7598 11.4203,7.5948 11.4203,7.4268 C11.4203,6.1138 10.9853,5.0438 10.0923,4.1548 C9.1973,3.2648 8.1513,2.8328 6.8943,2.8328 C5.6063,2.8328 4.5623,3.2658 3.7023,4.1568 C2.8373,5.0518 2.4173,6.1128 2.4173,7.4018 C2.4173,8.6868 2.8493,9.7438 3.7383,10.6318 C4.6273,11.5208 5.6593,11.9538 6.8943,11.9538 C6.9533,11.9538 7.0113,11.9518 7.0703,11.9498 C7.0683,11.9348 7.0673,11.9198 7.0663,11.9048 C6.9953,10.9988 6.9803,10.2458 7.1673,10.5488 C7.2323,10.6568 7.2973,10.7578 7.3633,10.8558 C7.6063,11.2198 7.8473,11.5188 8.0873,11.7678 C8.0993,11.7798 8.1113,11.7928 8.1233,11.8038 C9.0013,12.6948 9.8643,12.9148 10.7823,13.1388 L10.8413,13.1538 C10.9913,13.1908 11.1443,13.2288 11.2973,13.2698 C12.3893,13.5608 13.5703,14.0308 14.9493,15.7398" id="Fill-10" fill="#FF8C00" mask="url(#mask-4)"></path>
                </g>
            </g>
        </g>
    </g>
</svg>