<svg xmlns="http://www.w3.org/2000/svg" width="45" height="17" viewBox="0 0 45 17"><path fill="#FC8D2C" fill-rule="evenodd" d="M11.287 14.923c1.388 0 2.895.493 4.562 2.021.167.153.389-.037.243-.227-1.638-2.14-3.153-2.548-4.664-2.893-1.849-.421-2.8-1.497-3.462-2.679-.132-.235-.191-.193-.203.109-.015.37.01.858.09 1.34-.075.003-.15.002-.225.002-2.644 0-4.788-2.218-4.788-4.954 0-2.737 2.144-4.955 4.788-4.955s4.788 2.218 4.788 4.955c0 .194-.009.387-.03.576-.35-.066-1.038-.073-1.52-.03-.182.017-.157.104-.02.13 1.583.296 2.67 1.31 2.92 3.152.005.043.058.055.08.019a7.656 7.656 0 0 0 1.025-3.847c0-4.14-3.243-7.495-7.243-7.495S.385 3.503.385 7.642s3.243 7.495 7.243 7.495c1.061 0 2.114-.214 3.66-.214zm.54-2.72c.322.281.42.616.25.853a.517.517 0 0 1-.433.2.753.753 0 0 1-.493-.184c-.293-.265-.38-.694-.188-.939a.42.42 0 0 1 .342-.148c.177 0 .362.077.521.217zm1.486-.717c.048.329-.053.465-.153.465-.11 0-.248-.134-.411-.396-.16-.26-.22-.557-.14-.707.053-.1.163-.143.302-.089.269.105.374.531.402.727zm10.04-1.716l-.834-1.04c-.088-.108-.013-.274.124-.274h1.747c.083-.256.13-.53.13-.814 0-1.302-.936-2.424-2.222-2.424-1.285 0-2.221 1.122-2.221 2.424 0 1.302.936 2.409 2.221 2.409a2.1 2.1 0 0 0 1.056-.281zm3.779 1.756c.09.104.016.271-.12.271h-1.907a.258.258 0 0 1-.2-.097l-.324-.402c-.658.441-1.442.699-2.283.699-2.32 0-4.208-1.954-4.208-4.355 0-2.401 1.888-4.355 4.208-4.355 2.321 0 4.209 1.954 4.209 4.355 0 .866-.246 1.672-.669 2.351l1.294 1.533zm17.61-8.038h-1.555a.21.21 0 0 0-.207.214v7.88a.21.21 0 0 0 .207.214h1.556a.21.21 0 0 0 .207-.214v-7.88a.21.21 0 0 0-.207-.214zm-2.617 0h-1.741a.208.208 0 0 0-.198.15l-1.378 4.657-1.513-4.662a.208.208 0 0 0-.197-.145h-1.214a.208.208 0 0 0-.197.145l-1.514 4.662-1.377-4.657a.208.208 0 0 0-.198-.15h-1.74a.206.206 0 0 0-.169.088.217.217 0 0 0-.028.191l2.557 7.885a.208.208 0 0 0 .196.145h1.382c.089 0 .168-.058.196-.145l1.499-4.606 1.499 4.606a.208.208 0 0 0 .196.145h1.382c.089 0 .168-.058.196-.145l2.557-7.885a.217.217 0 0 0-.028-.19.206.206 0 0 0-.168-.09zm-12.123.214v7.88a.21.21 0 0 1-.207.214h-1.556a.21.21 0 0 1-.207-.214v-7.88a.21.21 0 0 1 .207-.214h1.556a.21.21 0 0 1 .207.214z"/></svg>