<?xml version="1.0" encoding="UTF-8"?>
<svg width="28px" height="9px" viewBox="0 0 28 9" version="1.1" xmlns="http://www.w3.org/2000/svg" xmlns:xlink="http://www.w3.org/1999/xlink">
    <!-- Generator: Sketch 52.4 (67378) - http://www.bohemiancoding.com/sketch -->
    <title>Group 3</title>
    <desc>Created with Sketch.</desc>
    <defs>
        <polygon id="path-1" points="8.66873065e-06 4.33497537e-06 27.995709 4.33497537e-06 27.995709 8.77425025 8.66873065e-06 8.77425025"></polygon>
    </defs>
    <g id="Demo-Pages-28.09.2017" stroke="none" stroke-width="1" fill="none" fill-rule="evenodd">
        <g id="Group-3">
            <mask id="mask-2" fill="white">
                <use xlink:href="#path-1"></use>
            </mask>
            <g id="Clip-2"></g>
            <path d="M5.48614489,6.53047133 L4.61589102,5.48374818 C4.52456594,5.37385655 4.60284458,5.20752355 4.74548854,5.20752355 L6.56639876,5.20752355 C6.65312941,4.94928906 6.70193437,4.67354128 6.70193437,4.38699941 C6.70193437,3.07562601 5.72631207,1.94480433 4.38651641,1.94480433 C3.04685077,1.94480433 2.07062167,3.07562601 2.07062167,4.38699941 C2.07062167,5.69867626 3.04685077,6.81332847 4.38651641,6.81332847 C4.79229969,6.81332847 5.1640582,6.70985261 5.48614489,6.53047133 Z M9.42426254,8.29979153 C9.51901176,8.40443783 9.44125325,8.57302502 9.29891269,8.57302502 L7.3119096,8.57302502 C7.23064025,8.57302502 7.15426873,8.53726148 7.10251641,8.47483783 L6.76547616,8.06977773 C6.07969288,8.51484966 5.26318514,8.77425458 4.38651641,8.77425458 C1.96763715,8.77425458 8.66873065e-06,6.80621911 8.66873065e-06,4.38699941 C8.66873065e-06,1.9680398 1.96763715,4.33497537e-06 4.38651641,4.33497537e-06 C6.80522229,4.33497537e-06 8.77272074,1.9680398 8.77272074,4.38699941 C8.77272074,5.25919645 8.51599628,6.07196099 8.07566811,6.75554325 L9.42426254,8.29979153 Z M27.7798663,0.201970837 L26.1583368,0.201970837 C26.0389684,0.201970837 25.9426588,0.29825064 25.9426588,0.417549163 L25.9426588,8.3567531 C25.9426588,8.47579153 26.0389684,8.57237478 26.1583368,8.57237478 L27.7798663,8.57237478 C27.899148,8.57237478 27.9957176,8.47579153 27.9957176,8.3567531 L27.9957176,0.417549163 C27.9957176,0.29825064 27.899148,0.201970837 27.7798663,0.201970837 Z M25.0511666,0.201970837 L23.2371046,0.201970837 C23.1418786,0.201970837 23.058182,0.263440788 23.0303988,0.353304828 L21.5948136,5.04491862 L20.0168446,0.348189557 C19.9873709,0.260883153 19.9051046,0.201970837 19.8121759,0.201970837 L18.5461077,0.201970837 C18.4532656,0.201970837 18.3708693,0.260883153 18.3412656,0.348189557 L16.7635567,5.04491862 L15.3278848,0.353304828 C15.3001015,0.263440788 15.2164483,0.201970837 15.121569,0.201970837 L13.307117,0.201970837 C13.2377238,0.201970837 13.1728384,0.23496 13.1321387,0.290707783 C13.0916124,0.346672315 13.0806464,0.418199409 13.102405,0.483570837 L15.7673895,8.426893 C15.7969932,8.51437281 15.8792594,8.57302502 15.9722749,8.57302502 L17.4121511,8.57302502 C17.5047765,8.57302502 17.5871294,8.51437281 17.6165164,8.426893 L19.1794019,3.78621517 L20.7415938,8.426893 C20.7709375,8.51437281 20.8533337,8.57302502 20.9462192,8.57302502 L22.3864421,8.57302502 C22.4790241,8.57302502 22.5615938,8.51437281 22.5910241,8.426893 L25.2560087,0.483570837 C25.2777672,0.418199409 25.2667579,0.346672315 25.2261882,0.290707783 C25.1855319,0.23496 25.1203864,0.201970837 25.0511666,0.201970837 Z M12.4159282,0.417549163 L12.4159282,8.3567531 C12.4159282,8.47579153 12.3190985,8.57237478 12.1997734,8.57237478 L10.578374,8.57237478 C10.4592223,8.57237478 10.362696,8.47579153 10.362696,8.3567531 L10.362696,0.417549163 C10.362696,0.29825064 10.4592223,0.201970837 10.578374,0.201970837 L12.1997734,0.201970837 C12.3190985,0.201970837 12.4159282,0.29825064 12.4159282,0.417549163 Z" id="Fill-1" fill-opacity="0.5" fill="#FFFFFF" mask="url(#mask-2)"></path>
        </g>
    </g>
</svg>