<svg xmlns="http://www.w3.org/2000/svg" width="35" height="12" viewBox="0 0 35 12"><path fill="#FFF" d="M13.333.483l-4.595 11.24H5.744L3.487 2.914a1.247 1.247 0 0 0-.666-1.03A11.7 11.7 0 0 0 .03.854L.092.442h4.81a1.397 1.397 0 0 1 1.303 1.195l1.19 6.316L10.338.442l2.995.04zm11.693 7.552c0-2.895-3.99-3.09-3.96-4.348 0-.391.38-.814 1.2-.917.958-.09 1.922.08 2.79.495L25.55.936a7.57 7.57 0 0 0-2.646-.484c-2.79 0-4.76 1.494-4.78 3.627 0 1.576 1.405 2.462 2.472 2.987 1.067.526 1.467.887 1.467 1.36 0 .742-.883 1.03-1.693 1.03a5.896 5.896 0 0 1-2.933-.638l-.513 2.41a8.53 8.53 0 0 0 3.149.588c2.974 0 4.913-1.473 4.923-3.76l.03-.021zm7.353 3.71h2.616L32.738.482h-2.41a1.416 1.416 0 0 0-1.2.937l-4.246 10.303h2.964l.595-1.875h3.63l.308 1.896zM29.251 7.51l1.487-4.122.862 4.122h-2.349zM17.354.483l-2.339 11.24h-2.83L14.533.483h2.82z" opacity=".5"/></svg>